<svg xmlns="http://www.w3.org/2000/svg" enable-background="new 0 0 500 500" viewBox="0 0 500 500" id="athletics">
  <circle cx="249.961" cy="107.612" r="61.582" fill="#474747"></circle>
  <path fill="#474747" d="M342,271.776C342,248.704,323.296,230,300.224,230h-0.448C276.704,230,258,248.704,258,271.776v133.448
		C258,428.296,276.704,447,299.776,447h0.448C323.296,447,342,428.296,342,405.224V271.776z"></path>
  <path fill="#474747" d="M456.056,393.513L346.016,154.228c-0.003-0.006-0.024-0.011-0.026-0.017
		c-4.397-13.023-11.391-24.848-20.332-34.894c-5.651,36.691-37.444,64.877-75.692,64.877c-38.247,0-70.036-28.184-75.689-64.874
		c-9.299,10.45-16.481,22.826-20.837,36.47L44.152,393.513c-7.58,16.488-0.359,35.999,16.129,43.579h0
		c16.488,7.58,35.999,0.358,43.579-16.13l46.253-100.732c1.694,8.075,4.887,15.644,8.887,22.453v62.413
		C159,428.169,177.76,447,200.832,447h0.196c22.184,0,40.581-17.357,41.959-39.197c-0.04-0.876,0.013-1.82,0.013-2.706V271.78
		c0-31.306,25.194-56.776,56.5-56.776s56.5,25.47,56.5,56.776v62.637l40.152,86.658c7.58,16.488,26.848,23.653,43.848,16.073v-0.028
		C456,429.54,463.636,410.001,456.056,393.513z"></path>
</svg>
