<svg xmlns="http://www.w3.org/2000/svg" xml:space="preserve" id="checkered-flag" x="0" y="0" version="1.1" viewBox="0 0 128 128">
  <path d="M114.4 27.5c-.7-.8-1.6-.7-2.5-.4-3.7 1.2-7.6 1.9-11.5 2-6.7.3-12.5-1.7-17.2-6.6l-3.3-3.3c-3.1-3.1-6.5-6-10.5-7.9-5-2.4-10.4-3.7-16-4.2-5.9-.5-11.9-.3-17.7 1.1-2.8.7-5.5 1.6-8.2 2.4v4.8l2.7-.2v51.3l-2.7 1.1v4.3l5.1-1.8c1.3-.5 2.5-1 3.8-1.3 2.5-.8 5-1.3 7.6-1.6 3.9-.4 7.7-.1 11.4 1.4 3.4 1.4 6.5 3.2 9.5 5.3 2.8 1.9 5.6 4 8.7 5.5 6.5 3.2 13.5 3.9 20.7 3.2 1.2-.1 1.9-.6 2.4-1.8 6.1-16.9 12.1-33.8 18.2-50.6.2-1.1.2-2-.5-2.7zM17.7 124c-2.6 0-4.7-2.1-4.7-4.7V8.7C13 6.1 15.1 4 17.7 4s4.7 2.1 4.7 4.7v110.6c0 2.6-2.1 4.7-4.7 4.7z" style="fill:#343433"></path>
</svg>
