<svg xmlns="http://www.w3.org/2000/svg" viewBox="0 0 512 512" id="coin">
  <circle cx="256" cy="256" r="256" fill="#ffb703"></circle>
  <circle cx="256" cy="256" r="183.75" fill="#ffcc29"></circle>
  <circle cx="256" cy="256" r="183.75" fill="none" stroke="#f99300" stroke-miterlimit="10" stroke-width="32.32"></circle>
  <path fill="none" stroke="#ffcc29" stroke-linecap="round" stroke-miterlimit="10" stroke-width="19.39" d="M341.31 468.54A227.51 227.51 0 00483.46 257.62M142.26 59A226.34 226.34 0 01256 28.54M64.77 132.76a228.18 228.18 0 0139.64-46.37M56.22 364.84A226.58 226.58 0 0128.54 256"></path>
  <path fill="#f99300" d="M303.53,237.67l-44.85-64.91a3.25,3.25,0,0,0-5.36,0l-44.85,64.91a3.26,3.26,0,0,1-4,1.14l-63.64-28.27a3.27,3.27,0,0,0-4.46,3.89l36.9,126.36a3.26,3.26,0,0,0,3.13,2.35H335.61a3.26,3.26,0,0,0,3.13-2.35l36.9-126.36a3.27,3.27,0,0,0-4.46-3.89l-63.64,28.27A3.29,3.29,0,0,1,303.53,237.67Z"></path>
</svg>
