<svg xmlns="http://www.w3.org/2000/svg" xml:space="preserve" viewBox="0 0 48 48" id="flame">
  <path fill="#F3705A" d="M13.2 43.7c-2.2-2.5-4.4-5.1-5.8-8.2-1.4-3.3-1.8-7.1-1.1-10.7s2.3-7 4.6-9.9c-.2 2.5.7 5.1 2.4 7-1-4.8.6-10 3.8-13.8s7.6-6.3 12.2-8c-2.3 2.4-2.6 6.2-1.7 9.4s2.8 6 4.5 8.9c1.7 2.9 3.3 5.9 3.4 9.2.9-1.7 1.9-3.4 2.5-5.3s.9-3.9.4-5.8c1.8 2.2 2.8 4.4 3.3 7.2s.4 5.7.1 8.5c-.4 3.1-1.2 6.3-2.9 8.9-2 3.1-5.2 5.3-8.7 6.5-6.2 1.1-12.3.2-17-3.9z"></path>
  <path fill="#FFD15C" d="M20.8 47.4c8.2 3.2 16.3-6.5 11.8-14 0-.1-.1-.1-.1-.2.4 4.1-.6 7.1-2.5 8.8 1-2.4.3-5.2-.9-7.6-1.2-2.3-2.9-4.4-4.2-6.6-1.3-2.3-2.3-4.9-1.7-7.5-2.4 1.8-4.1 4.5-4.8 7.4-.7 2.9-.3 6.1 1 8.8-1.5-1.1-2.6-2.9-2.7-4.8-1.6 1.9-2.6 4.4-2.5 6.9 0 3.9 3.1 7.4 6.6 8.8z"></path>
</svg>
