<svg xmlns="http://www.w3.org/2000/svg" enable-background="new 0 0 500 500" viewBox="0 0 500 500" id="sprint">
  <circle cx="378.568" cy="106.374" r="44.406" fill="#474747"></circle>
  <path fill="#474747" d="M478.656 154.895c-10.452-11.017-27.859-11.478-38.877-1.023l-46.84 44.437L262.622 72.028c-10.59-10.262-27.389-10.345-38.081-.185L188.599 106H113c-5.522 0-10 4.477-10 10s4.478 10 10 10h54.553H196c5.522 0 10 4.477 10 10s-4.478 10-10 10h-49.492l-.441.419c-11.009 10.462-11.452 27.869-.99 38.878 10.464 11.011 27.869 11.453 38.879.99l59.345-56.397 26.202 25.39L214.391 210H26c-5.522 0-10 4.477-10 10s4.478 10 10 10h168.248H210c5.522 0 10 4.477 10 10s-4.478 10-10 10h-27-8.828H80c-5.522 0-10 4.477-10 10s4.478 10 10 10h79.226H165c5.522 0 10 4.477 10 10s-4.478 10-10 10h-20.486l-29.351 39.901-90.955 69.264c-12.083 9.202-14.419 26.456-5.218 38.539 5.412 7.106 13.607 10.841 21.899 10.841 5.808 0 11.663-1.833 16.641-5.623l94.103-71.661c2.087-1.59 3.937-3.47 5.491-5.583l53.799-73.137 70.186 20.83-45.549 42.653c-11.086 10.381-11.657 27.784-1.276 38.87 5.414 5.782 12.737 8.704 20.079 8.703 6.735 0 13.486-2.46 18.791-7.427l80.563-75.441c7.193-6.736 10.232-16.806 7.966-26.397-2.266-9.591-9.491-17.236-18.938-20.04l-40.957-12.156 39.351-37.44 32.464 31.458c5.33 5.165 12.231 7.751 19.138 7.751 6.807 0 13.618-2.514 18.926-7.55l65.968-62.584C488.651 183.319 489.109 165.914 478.656 154.895zM77 126h7c5.522 0 10-4.477 10-10s-4.478-10-10-10h-7c-5.522 0-10 4.477-10 10S71.478 126 77 126z"></path>
</svg>
