<svg xmlns="http://www.w3.org/2000/svg" enable-background="new 0 0 500 500" viewBox="0 0 500 500" id="sprinter">
  <circle cx="378.568" cy="114.373" r="44.406" fill="#474747"></circle>
  <path fill="#474747" d="M478.656,162.895c-10.452-11.017-27.859-11.478-38.877-1.023l-46.84,44.437L262.622,80.028
		c-10.59-10.262-27.39-10.345-38.081-0.185l-78.475,74.576c-11.009,10.462-11.452,27.869-0.99,38.878
		c10.464,11.011,27.869,11.453,38.879,0.99l59.345-56.397l26.202,25.39l-94.503,93.833c-1.007,1-1.936,2.077-2.776,3.22
		l-57.059,77.568l-90.955,69.264c-12.083,9.202-14.419,26.456-5.218,38.539c5.412,7.106,13.607,10.841,21.899,10.841
		c5.808,0,11.663-1.833,16.641-5.623l94.103-71.661c2.087-1.59,3.937-3.47,5.491-5.583l53.799-73.137l70.186,20.83l-45.549,42.653
		c-11.086,10.381-11.657,27.784-1.276,38.87c5.414,5.782,12.737,8.704,20.079,8.703c6.735,0,13.486-2.46,18.791-7.427l80.563-75.441
		c7.193-6.736,10.232-16.806,7.966-26.397c-2.266-9.591-9.491-17.236-18.938-20.04l-40.957-12.156l39.351-37.44l32.464,31.458
		c5.33,5.165,12.231,7.751,19.138,7.751c6.807,0,13.618-2.514,18.926-7.55l65.968-62.584
		C488.651,191.319,489.109,173.914,478.656,162.895z"></path>
</svg>
