<svg xmlns="http://www.w3.org/2000/svg" enable-background="new 0 0 129.623 237.051" viewBox="0 0 129.623 237.051" id="standing-man">
  <path d="M30.465,120.897c1.386,0.955,2.967,1.413,4.531,1.413c0.945,0,1.885-0.169,2.772-0.495v5.004
		c0,0.201,0.015,0.398,0.03,0.595l-6.504,96.441c-0.459,6.815,4.693,12.708,11.504,13.167c6.813,0.46,12.71-4.689,13.169-11.503
		l6.134-90.971h5.426l6.134,90.971c0.459,6.814,6.356,11.963,13.169,11.503c6.811-0.459,11.963-6.352,11.504-13.167l-6.504-96.441
		c0.016-0.197,0.03-0.394,0.03-0.595v-5.003c0.887,0.325,1.825,0.494,2.769,0.494c1.565,0,3.146-0.458,4.531-1.412
		c19.371-13.463,29.207-32.864,29.564-33.409c1.521-2.938,1.082-6.498-1.108-8.978c-0.166-0.18-5.898-6.677-13.926-13.385
		c-4.029-3.354-8.623-6.772-13.593-9.497c-4.478-2.416-9.278-4.395-14.624-4.807c-0.437-0.077-0.884-0.124-1.343-0.124H45.496
		c-0.458,0-0.904,0.047-1.341,0.124c-5.347,0.411-10.15,2.39-14.63,4.809c-7.435,4.088-14.109,9.728-19.132,14.391
		c-5,4.663-8.266,8.355-8.386,8.489c-2.192,2.481-2.632,6.039-1.109,8.977C1.257,88.035,11.093,107.433,30.465,120.897z
		 M108.321,81.725c1.228,1.145,2.344,2.231,3.313,3.2c-3.621,5.52-10.504,14.688-19.774,21.532V69.372
		c0.188,0.1,0.371,0.19,0.56,0.296C97.877,72.632,103.884,77.572,108.321,81.725z M27.512,76.325
		c3.316-2.679,6.928-5.209,10.256-6.959v37.06c-6.878-5.105-12.505-11.44-16.385-16.651c-1.336-1.788-2.47-3.439-3.392-4.85
		C20.427,82.492,23.784,79.324,27.512,76.325z"></path>
  <circle cx="64.814" cy="22.5" r="22.5"></circle>
</svg>
