<svg width="148" height="40" viewBox="0 0 148 40" fill="none" xmlns="http://www.w3.org/2000/svg">
<path d="M138.588 5.79029H136.368L135.858 7.43707H134.402L136.803 0H138.259L140.649 7.43707H139.119L138.588 5.79029ZM136.707 4.62161H138.301L137.547 2.1355H137.451L136.707 4.62161Z" fill="#1360F3"/>
<path d="M142.132 6.14089H144.013V1.29618H142.132V0H147.36V1.29618H145.468V6.14089H147.36V7.43707H142.132V6.14089Z" fill="#1360F3"/>
<path d="M11.364 24.9526H4.27323V38.4297H0V5.60568H11.5049C14.6667 5.60568 17.2025 6.34137 19.1122 7.81274C21.0218 9.28411 21.9766 11.5381 21.9766 14.5748C21.9766 16.4844 21.554 18.0967 20.7087 19.4115C19.8635 20.695 18.4704 21.8221 16.5294 22.7925C17.6877 23.2621 18.58 23.7787 19.2061 24.3422C19.8322 24.9057 20.2861 25.6727 20.5679 26.6431C20.8496 27.5823 21.0375 28.8502 21.1314 30.4468L21.2722 32.8886C21.3349 33.6713 21.4601 34.4852 21.6479 35.3305C21.8357 36.1757 22.274 36.8488 22.9628 37.3497V38.4297H18.126C17.7817 37.7097 17.4843 36.8801 17.2338 35.9409C17.0147 35.0018 16.9051 34 16.9051 32.9356V30.8694C16.9051 28.9285 16.4668 27.4571 15.5903 26.4553C14.7137 25.4535 13.3049 24.9526 11.364 24.9526ZM4.27323 9.31541V21.2429H10.6596C12.7884 21.2429 14.4632 20.789 15.6842 19.8811C16.9051 18.9419 17.5156 17.3297 17.5156 15.0444C17.5156 13.0408 16.9051 11.5851 15.6842 10.6772C14.4946 9.76934 12.8197 9.31541 10.6596 9.31541H4.27323Z" fill="url(#paint0_linear_567_1617)"/>
<path d="M34.4284 13.0721C36.9641 13.0721 39.046 13.6513 40.6739 14.8096C42.3331 15.9366 43.554 17.4862 44.3366 19.4585C45.1506 21.4307 45.5575 23.6691 45.5575 26.1735C45.5575 28.6467 45.1506 30.8851 44.3366 32.8886C43.554 34.8609 42.3331 36.4262 40.6739 37.5845C39.046 38.7115 36.9641 39.275 34.4284 39.275C31.9239 39.275 29.8421 38.7115 28.1829 37.5845C26.5237 36.4262 25.2871 34.8609 24.4731 32.8886C23.6905 30.8851 23.2992 28.6467 23.2992 26.1735C23.2992 23.6691 23.6905 21.4307 24.4731 19.4585C25.2871 17.4862 26.5237 15.9366 28.1829 14.8096C29.8421 13.6513 31.9239 13.0721 34.4284 13.0721ZM34.4284 16.6879C32.7692 16.6879 31.423 17.1262 30.3899 18.0028C29.3568 18.8793 28.5898 20.0376 28.0889 21.4777C27.6194 22.9177 27.3846 24.483 27.3846 26.1735C27.3846 27.8328 27.6194 29.398 28.0889 30.8694C28.5898 32.3095 29.3568 33.4678 30.3899 34.3443C31.423 35.2209 32.7692 35.6592 34.4284 35.6592C36.0876 35.6592 37.4337 35.2209 38.4668 34.3443C39.4999 33.4678 40.2512 32.3095 40.7208 30.8694C41.2217 29.398 41.4721 27.8328 41.4721 26.1735C41.4721 24.483 41.2217 22.9177 40.7208 21.4777C40.2512 20.0376 39.4999 18.8793 38.4668 18.0028C37.4337 17.1262 36.0876 16.6879 34.4284 16.6879Z" fill="url(#paint1_linear_567_1617)"/>
<path d="M58.7606 13.0721C61.2964 13.0721 63.3782 13.6513 65.0061 14.8096C66.6653 15.9366 67.8862 17.4862 68.6689 19.4585C69.4828 21.4307 69.8898 23.6691 69.8898 26.1735C69.8898 28.6467 69.4828 30.8851 68.6689 32.8886C67.8862 34.8609 66.6653 36.4262 65.0061 37.5845C63.3782 38.7115 61.2964 39.275 58.7606 39.275C56.2562 39.275 54.1743 38.7115 52.5151 37.5845C50.8559 36.4262 49.6193 34.8609 48.8054 32.8886C48.0227 30.8851 47.6314 28.6467 47.6314 26.1735C47.6314 23.6691 48.0227 21.4307 48.8054 19.4585C49.6193 17.4862 50.8559 15.9366 52.5151 14.8096C54.1743 13.6513 56.2562 13.0721 58.7606 13.0721ZM58.7606 16.6879C57.1014 16.6879 55.7553 17.1262 54.7222 18.0028C53.6891 18.8793 52.9221 20.0376 52.4212 21.4777C51.9516 22.9177 51.7168 24.483 51.7168 26.1735C51.7168 27.8328 51.9516 29.398 52.4212 30.8694C52.9221 32.3095 53.6891 33.4678 54.7222 34.3443C55.7553 35.2209 57.1014 35.6592 58.7606 35.6592C60.4198 35.6592 61.766 35.2209 62.7991 34.3443C63.8321 33.4678 64.5835 32.3095 65.0531 30.8694C65.554 29.398 65.8044 27.8328 65.8044 26.1735C65.8044 24.483 65.554 22.9177 65.0531 21.4777C64.5835 20.0376 63.8321 18.8793 62.7991 18.0028C61.766 17.1262 60.4198 16.6879 58.7606 16.6879Z" fill="url(#paint2_linear_567_1617)"/>
<path d="M76.2839 38.4297H72.4333V4.19692H76.2839V24.1074L86.8496 13.8234H91.8272L82.952 22.6047L93.2829 38.4297H88.634L80.0406 25.1874L76.2839 28.8502V38.4297Z" fill="url(#paint3_linear_567_1617)"/>
<path d="M102.917 10.3015V5.60568H107.613V10.3015H102.917ZM107.19 13.8234V35.2366H114.751V38.4297H94.8872V35.2366H103.34V17.0166H94.8872V13.8234H107.19Z" fill="url(#paint4_linear_567_1617)"/>
<path d="M137.533 30.8225C137.126 33.3895 135.984 35.44 134.105 36.974C132.258 38.508 129.895 39.275 127.015 39.275C124.541 39.275 122.475 38.7271 120.816 37.6314C119.157 36.5044 117.905 34.9705 117.059 33.0295C116.245 31.0885 115.838 28.8658 115.838 26.3614C115.838 23.6065 116.308 21.2429 117.247 19.2706C118.186 17.2984 119.501 15.78 121.192 14.7157C122.882 13.6199 124.854 13.0721 127.108 13.0721C129.644 13.0721 131.71 13.6669 133.307 14.8565C134.935 16.0461 136.125 17.7053 136.876 19.8341C137.659 21.9629 138.05 24.4517 138.05 27.3006H119.924C119.986 29.7111 120.613 31.7147 121.802 33.3113C122.992 34.8765 124.776 35.6592 127.155 35.6592C130.38 35.6592 132.524 34.0469 133.589 30.8225H137.533ZM127.062 16.6879C124.87 16.6879 123.195 17.4079 122.037 18.848C120.879 20.2881 120.206 22.0412 120.018 24.1074H133.824C133.824 22.7299 133.542 21.4933 132.978 20.3976C132.446 19.2706 131.679 18.3784 130.677 17.721C129.676 17.0323 128.47 16.6879 127.062 16.6879Z" fill="url(#paint5_linear_567_1617)"/>
<defs>
<linearGradient id="paint0_linear_567_1617" x1="70.9306" y1="21.9942" x2="70.9306" y2="43.1256" gradientUnits="userSpaceOnUse">
<stop stop-color="white"/>
<stop offset="1" stop-color="#999999"/>
</linearGradient>
<linearGradient id="paint1_linear_567_1617" x1="70.9306" y1="21.9942" x2="70.9306" y2="43.1256" gradientUnits="userSpaceOnUse">
<stop stop-color="white"/>
<stop offset="1" stop-color="#999999"/>
</linearGradient>
<linearGradient id="paint2_linear_567_1617" x1="70.9306" y1="21.9942" x2="70.9306" y2="43.1256" gradientUnits="userSpaceOnUse">
<stop stop-color="white"/>
<stop offset="1" stop-color="#999999"/>
</linearGradient>
<linearGradient id="paint3_linear_567_1617" x1="70.9306" y1="21.9942" x2="70.9306" y2="43.1256" gradientUnits="userSpaceOnUse">
<stop stop-color="white"/>
<stop offset="1" stop-color="#999999"/>
</linearGradient>
<linearGradient id="paint4_linear_567_1617" x1="70.9306" y1="21.9942" x2="70.9306" y2="43.1256" gradientUnits="userSpaceOnUse">
<stop stop-color="white"/>
<stop offset="1" stop-color="#999999"/>
</linearGradient>
<linearGradient id="paint5_linear_567_1617" x1="70.9306" y1="21.9942" x2="70.9306" y2="43.1256" gradientUnits="userSpaceOnUse">
<stop stop-color="white"/>
<stop offset="1" stop-color="#999999"/>
</linearGradient>
</defs>
</svg>
